HIERARCHY
ROOT Hips
{
    OFFSET   0.000000   0.000000   0.000000
    CHANNELS 6 Xposition Yposition Zposition Zrotation Xrotation Yrotation
    JOINT Chest
    {
        OFFSET   0.000000   8.007240   0.000000
        CHANNELS 3 Zrotation Xrotation Yrotation
        JOINT Chest2
        {
            OFFSET   0.000000  22.077100   0.000000
            CHANNELS 3 Zrotation Xrotation Yrotation
            JOINT Neck
            {
                OFFSET   0.000000  23.254800   0.000000
                CHANNELS 3 Zrotation Xrotation Yrotation
                JOINT Head
                {
                    OFFSET   0.000000  14.370000   1.956600
                    CHANNELS 3 Zrotation Xrotation Yrotation
                    End Site
                    {
                        OFFSET   0.000000  19.566000   0.000000
                    }
                }
            }
            JOINT LeftCollar
            {
                OFFSET   3.911900  19.017000  -0.467064
                CHANNELS 3 Zrotation Xrotation Yrotation
                JOINT LeftShoulder
                {
                    OFFSET  10.383700   0.000000   0.000000
                    CHANNELS 3 Zrotation Xrotation Yrotation
                    JOINT LeftElbow
                    {
                        OFFSET  26.662100   0.001476   0.000517
                        CHANNELS 3 Zrotation Xrotation Yrotation
                        JOINT LeftWrist
                        {
                            OFFSET  28.869000  -0.000025  -0.000106
                            CHANNELS 3 Zrotation Xrotation Yrotation
                            JOINT LeftFinger0
                            {
                                OFFSET   2.044660  -2.323460   3.252850
                                CHANNELS 3 Zrotation Xrotation Yrotation
                                JOINT LeftFinger01
                                {
                                    OFFSET   3.088130   0.000000   0.000000
                                    CHANNELS 3 Zrotation Xrotation Yrotation
                                    JOINT LeftFinger02
                                    {
                                        OFFSET   2.639460   0.000000   0.000000
                                        CHANNELS 3 Zrotation Xrotation Yrotation
                                        End Site
                                        {
                                            OFFSET   2.582190   0.000000   0.000000
                                        }
                                    }
                                }
                            }
                            JOINT LeftFinger1
                            {
                                OFFSET   8.364480   0.000000   3.252850
                                CHANNELS 3 Zrotation Xrotation Yrotation
                                JOINT LeftFinger11
                                {
                                    OFFSET   4.646930   0.000000   0.000000
                                    CHANNELS 3 Zrotation Xrotation Yrotation
                                    JOINT LeftFinger12
                                    {
                                        OFFSET   2.323460   0.000000   0.000000
                                        CHANNELS 3 Zrotation Xrotation Yrotation
                                        End Site
                                        {
                                            OFFSET   2.273050   0.000000   0.000000
                                        }
                                    }
                                }
                            }
                            JOINT LeftFinger2
                            {
                                OFFSET   8.364490   0.000015   1.078090
                                CHANNELS 3 Zrotation Xrotation Yrotation
                                JOINT LeftFinger21
                                {
                                    OFFSET   5.111620   0.000000   0.000000
                                    CHANNELS 3 Zrotation Xrotation Yrotation
                                    JOINT LeftFinger22
                                    {
                                        OFFSET   2.788160   0.000016   0.000000
                                        CHANNELS 3 Zrotation Xrotation Yrotation
                                        End Site
                                        {
                                            OFFSET   2.727660   0.000000   0.000000
                                        }
                                    }
                                }
                            }
                            JOINT LeftFinger3
                            {
                                OFFSET   7.899780   0.000017  -1.078090
                                CHANNELS 3 Zrotation Xrotation Yrotation
                                JOINT LeftFinger31
                                {
                                    OFFSET   4.646930   0.000000   0.000000
                                    CHANNELS 3 Zrotation Xrotation Yrotation
                                    JOINT LeftFinger32
                                    {
                                        OFFSET   2.323470   0.000000   0.000000
                                        CHANNELS 3 Zrotation Xrotation Yrotation
                                        End Site
                                        {
                                            OFFSET   2.273050   0.000000   0.000000
                                        }
                                    }
                                }
                            }
                            JOINT LeftFinger4
                            {
                                OFFSET   7.435090   0.000000  -3.252850
                                CHANNELS 3 Zrotation Xrotation Yrotation
                                JOINT LeftFinger41
                                {
                                    OFFSET   3.717550   0.000000   0.000000
                                    CHANNELS 3 Zrotation Xrotation Yrotation
                                    JOINT LeftFinger42
                                    {
                                        OFFSET   1.858770   0.000000   0.000000
                                        CHANNELS 3 Zrotation Xrotation Yrotation
                                        End Site
                                        {
                                            OFFSET   1.818440   0.000000   0.000000
                                        }
                                    }
                                }
                            }
                        }
                    }
                }
            }
            JOINT RightCollar
            {
                OFFSET  -3.911900  19.017000  -0.467063
                CHANNELS 3 Zrotation Xrotation Yrotation
                JOINT RightShoulder
                {
                    OFFSET -10.383700   0.000019   0.000000
                    CHANNELS 3 Zrotation Xrotation Yrotation
                    JOINT RightElbow
                    {
                        OFFSET -26.662100   0.001175   0.000102
                        CHANNELS 3 Zrotation Xrotation Yrotation
                        JOINT RightWrist
                        {
                            OFFSET -28.869000   0.000016  -0.000079
                            CHANNELS 3 Zrotation Xrotation Yrotation
                            JOINT RightFinger0
                            {
                                OFFSET  -2.044660  -2.323490   3.252850
                                CHANNELS 3 Zrotation Xrotation Yrotation
                                JOINT RightFinger01
                                {
                                    OFFSET  -3.088140   0.000000   0.000000
                                    CHANNELS 3 Zrotation Xrotation Yrotation
                                    JOINT RightFinger02
                                    {
                                        OFFSET  -2.639460   0.000000   0.000000
                                        CHANNELS 3 Zrotation Xrotation Yrotation
                                        End Site
                                        {
                                            OFFSET  -2.582190   0.000000   0.000000
                                        }
                                    }
                                }
                            }
                            JOINT RightFinger1
                            {
                                OFFSET  -8.364480   0.000000   3.252850
                                CHANNELS 3 Zrotation Xrotation Yrotation
                                JOINT RightFinger11
                                {
                                    OFFSET  -4.646930   0.000000   0.000000
                                    CHANNELS 3 Zrotation Xrotation Yrotation
                                    JOINT RightFinger12
                                    {
                                        OFFSET  -2.323470   0.000000   0.000000
                                        CHANNELS 3 Zrotation Xrotation Yrotation
                                        End Site
                                        {
                                            OFFSET  -2.273050   0.000000   0.000000
                                        }
                                    }
                                }
                            }
                            JOINT RightFinger2
                            {
                                OFFSET  -8.364480   0.000000   1.078090
                                CHANNELS 3 Zrotation Xrotation Yrotation
                                JOINT RightFinger21
                                {
                                    OFFSET  -5.111620   0.000000   0.000000
                                    CHANNELS 3 Zrotation Xrotation Yrotation
                                    JOINT RightFinger22
                                    {
                                        OFFSET  -2.788160   0.000000   0.000000
                                        CHANNELS 3 Zrotation Xrotation Yrotation
                                        End Site
                                        {
                                            OFFSET  -2.727660   0.000000   0.000000
                                        }
                                    }
                                }
                            }
                            JOINT RightFinger3
                            {
                                OFFSET  -7.899780   0.000000  -1.078090
                                CHANNELS 3 Zrotation Xrotation Yrotation
                                JOINT RightFinger31
                                {
                                    OFFSET  -4.646930   0.000000   0.000000
                                    CHANNELS 3 Zrotation Xrotation Yrotation
                                    JOINT RightFinger32
                                    {
                                        OFFSET  -2.323470   0.000000   0.000000
                                        CHANNELS 3 Zrotation Xrotation Yrotation
                                        End Site
                                        {
                                            OFFSET  -2.273050   0.000000   0.000000
                                        }
                                    }
                                }
                            }
                            JOINT RightFinger4
                            {
                                OFFSET  -7.435090   0.000000  -3.252850
                                CHANNELS 3 Zrotation Xrotation Yrotation
                                JOINT RightFinger41
                                {
                                    OFFSET  -3.717550   0.000000   0.000000
                                    CHANNELS 3 Zrotation Xrotation Yrotation
                                    JOINT RightFinger42
                                    {
                                        OFFSET  -1.858770   0.000000   0.000000
                                        CHANNELS 3 Zrotation Xrotation Yrotation
                                        End Site
                                        {
                                            OFFSET  -1.818440   0.000000   0.000000
                                        }
                                    }
                                }
                            }
                        }
                    }
                }
            }
        }
    }
    JOINT LeftHip
    {
        OFFSET   9.783040   0.000000   0.000000
        CHANNELS 3 Zrotation Xrotation Yrotation
        JOINT LeftKnee
        {
            OFFSET   0.000032 -41.789100  -0.002222
            CHANNELS 3 Zrotation Xrotation Yrotation
            JOINT LeftAnkle
            {
                OFFSET   0.000087 -41.133200  -0.000135
                CHANNELS 3 Zrotation Xrotation Yrotation
                JOINT LeftToe
                {
                    OFFSET   0.000000  -6.358960  14.674500
                    CHANNELS 3 Zrotation Xrotation Yrotation
                    End Site
                    {
                        OFFSET   0.000000   0.000000   3.913200
                    }
                }
            }
        }
    }
    JOINT RightHip
    {
        OFFSET  -9.783040   0.000000   0.000000
        CHANNELS 3 Zrotation Xrotation Yrotation
        JOINT RightKnee
        {
            OFFSET   0.000047 -41.789100  -0.000896
            CHANNELS 3 Zrotation Xrotation Yrotation
            JOINT RightAnkle
            {
                OFFSET  -0.000117 -41.133300  -0.000248
                CHANNELS 3 Zrotation Xrotation Yrotation
                JOINT RightToe
                {
                    OFFSET   0.000000  -6.358970  14.674500
                    CHANNELS 3 Zrotation Xrotation Yrotation
                    End Site
                    {
                        OFFSET   0.000000   0.000000   3.913200
                    }
                }
            }
        }
    }
}
MOTION
Frames: 4
Frame Time:   0.016667
 -0.419572  89.560600  -7.833350  -0.805276  -7.501670   3.273560   1.120390   5.015350  -1.012400   2.343440  10.008900  -2.135780   0.305697  -1.280640   0.010541   0.503023  -2.596560   1.556420  -6.661040   2.152270   0.105504 -68.787300  15.128800  -7.370430  -2.388330  -3.077980 -11.209800   9.885810  -8.322520   8.294620  36.996500  27.835700 -57.035700 -31.773600   0.001866   0.005979 -10.889700   0.009891   0.000081 -35.239200   4.396960  -6.192490 -29.027600  -0.002939  -0.002176 -20.319300  -0.004986  -0.009290 -29.111000   1.588780  -2.867580 -43.726400  -0.009807  -0.010497 -29.121800  -0.000819  -0.009302 -28.994200  -0.416531   0.731682 -43.495000  -0.008074  -0.011593 -28.967600  -0.001088  -0.007520 -37.147200  -1.146130   1.512420 -55.743400  -0.001387  -0.003788 -37.125100   0.003511  -0.013020   5.555800  -0.528620   7.173090  72.477300   4.912190   0.059587   0.782142  -5.185740   9.201190 -15.056800  -8.980080   2.103790 -33.680700  28.638700  63.396000  36.062300  -0.000525  -0.011114  13.036900   0.005209  -0.008840  30.728000   8.079330  13.302700  25.913200  -0.005306   0.002842  18.139200  -0.003003   0.003037  28.153900   5.324050   9.848890  37.545500  -0.001511   0.011530  25.005300  -0.008127   0.010224  28.532100   3.990130   7.278220  41.438900  -0.008073   0.000232  27.598300  -0.002968   0.006169  38.743300  -0.723932  -0.885227  58.123500  -0.003580   0.006394  38.710300   0.000636   0.004945   1.285610   8.015040  -1.014090   1.546380   0.110793  13.515100  -4.383550  -0.826106   6.883220  -0.000000   0.000000   0.000000  -0.365142   2.998790  -2.625010  -0.663745   7.357960 -10.332500  -0.661803  -2.799590  -8.649570   0.000000   0.000000   0.000000
 -0.396103  89.560700  -7.833490  -0.804754  -7.509240   3.264560   1.120660   5.023100  -1.013000   2.344350  10.024500  -2.137210   0.305546  -1.284810   0.010505   0.502697  -2.604950   1.564630  -6.660920   2.152120   0.102704 -68.783600  15.146500  -7.381700  -2.391180  -3.095090 -11.203200   9.867850  -8.330680   8.308870  36.996400  27.834000 -57.038300 -31.779100   0.001867   0.005981 -10.891200   0.009885   0.000084 -35.242700   4.392160  -6.184070 -29.029600  -0.002935  -0.002172 -20.320700  -0.004988  -0.009287 -29.112500   1.588790  -2.860250 -43.728400  -0.009807  -0.010496 -29.123100  -0.000822  -0.009301 -28.994100  -0.416530   0.739600 -43.495100  -0.008073  -0.011592 -28.967700  -0.001090  -0.007518 -37.140200  -1.153490   1.522520 -55.733300  -0.001384  -0.003785 -37.118300   0.003507  -0.013021   5.555850  -0.528545   7.178930  72.462700   4.876860   0.040868   0.781781  -5.257190   9.183750 -15.047200  -8.987010   2.104060 -33.673000  28.667000  63.452500  36.066700  -0.000528  -0.011109  13.036700   0.005208  -0.008840  30.739600   8.092680  13.317000  25.924700  -0.005305   0.002837  18.147300  -0.003002   0.003034  28.153900   5.324050   9.848880  37.565600  -0.001509   0.011527  25.018700  -0.008130   0.010224  28.532000   3.990140   7.278220  41.455700  -0.008071   0.000230  27.609500  -0.002967   0.006163  38.757300  -0.724328  -0.885219  58.144500  -0.003579   0.006387  38.724200   0.000633   0.004941   1.268130   8.053790  -1.003260   1.545370   0.051226  13.498800  -4.368350  -0.813106   6.903190  -0.000000   0.000000   0.000000  -0.375212   2.964810  -2.615460  -0.679396   7.420060 -10.325400  -0.654445  -2.815590  -8.658190   0.000000   0.000000   0.000000
 -0.355794  89.560700  -7.833680  -0.803544  -7.522780   3.245990   1.121600   5.037240  -1.014420   2.346590  10.052800  -2.140510   0.305395  -1.292260   0.010432   0.502922  -2.620040   1.580850  -6.660790   2.151080   0.099905 -68.778200  15.180100  -7.401110  -2.396480  -3.126340 -11.190800   9.836870  -8.341920   8.326860  36.992100  27.828400 -57.047100 -31.789300   0.001868   0.005983 -10.894700   0.009879   0.000087 -35.252200   4.386140  -6.175650 -29.036400  -0.002926  -0.002164 -20.325500  -0.004992  -0.009279 -29.115700   1.588800  -2.849940 -43.733000  -0.009809  -0.010490 -29.126100  -0.000828  -0.009298 -28.994100  -0.416530   0.751742 -43.495200  -0.008073  -0.011591 -28.967700  -0.001096  -0.007513 -37.130500  -1.164550   1.537640 -55.719200  -0.001376  -0.003778 -37.109000   0.003498  -0.013026   5.556020  -0.528459   7.193740  72.430400   4.817490   0.005032   0.785325  -5.360430   9.166800 -15.027200  -8.993940   2.105670 -33.678300  28.709700  63.525100  36.073500  -0.000531  -0.011104  13.036500   0.005207  -0.008839  30.750900   8.105970  13.333000  25.936300  -0.005298   0.002826  18.155400  -0.002999   0.003024  28.153900   5.324040   9.848870  37.585700  -0.001502   0.011524  25.032000  -0.008134   0.010223  28.532000   3.990150   7.278220  41.472500  -0.008061   0.000219  27.620700  -0.002967   0.006150  38.771300  -0.724724  -0.885208  58.165400  -0.003573   0.006368  38.738200   0.000628   0.004929   1.237080   8.105060  -0.984957   1.544320  -0.008349  13.474400  -4.343500  -0.800086   6.936030  -0.000000   0.000000  -0.000000  -0.394558   2.896840  -2.601340  -0.704042   7.538400 -10.313400  -0.641270  -2.844400  -8.666920   0.000000   0.000000  -0.000000
 -0.320882  89.560400  -7.833770  -0.801879  -7.535440   3.223800   1.123750   5.051010  -1.016630   2.351550  10.080200  -2.145490   0.305810  -1.299750   0.010339   0.504593  -2.635480   1.601350  -6.666180   2.147400   0.110490 -68.776600  15.216000  -7.419230  -2.402250  -3.157310 -11.176600   9.810770  -8.345970   8.331250  36.978000  27.816600 -57.065400 -31.800400   0.001857   0.005974 -10.900100   0.009885   0.000084 -35.270200   4.384900  -6.176630 -29.050900  -0.002914  -0.002154 -20.335700  -0.005001  -0.009264 -29.121400   1.588150  -2.846770 -43.741500  -0.009811  -0.010479 -29.131800  -0.000837  -0.009293 -28.994000  -0.418972   0.758167 -43.495100  -0.008072  -0.011592 -28.967700  -0.001105  -0.007507 -37.128000  -1.170350   1.545420 -55.715700  -0.001361  -0.003766 -37.106700   0.003485  -0.013034   5.560270  -0.532349   7.218030  72.385600   4.768110  -0.034946   0.793341  -5.411700   9.174550 -14.999800  -8.966070   2.118990 -33.694400  28.734500  63.538900  36.076900  -0.000531  -0.011104  13.037700   0.005215  -0.008843  30.741000   8.103990  13.335000  25.928100  -0.005284   0.002811  18.149700  -0.002994   0.003011  28.153900   5.324030   9.848860  37.573300  -0.001491   0.011525  25.023800  -0.008139   0.010217  28.531800   3.990120   7.281830  41.447600  -0.008042   0.000196  27.604100  -0.002978   0.006131  38.760500  -0.721767  -0.885204  58.149100  -0.003564   0.006338  38.727300   0.000620   0.004910   1.208370   8.115120  -0.965861   1.540570   0.009070  13.457900  -4.324630  -0.816995   6.961570   0.000000   0.000000  -0.000000  -0.416693   2.804410  -2.594100  -0.719971   7.675580 -10.306700  -0.628750  -2.871770  -8.658130   0.000000   0.000000  -0.000000
